<svg xmlns="http://www.w3.org/2000/svg" width="40" height="38" viewBox="0 0 40 38"><defs><filter id="a" width="200%" height="200%" x="-50%" y="-50%"><feMorphology in="SourceGraphic" operator="dilate" result="SvgjsFeMorphology1010Out"/><feOffset dy="1" in="SvgjsFeMorphology1010Out" result="SvgjsFeOffset1011Out"/><feGaussianBlur in="SvgjsFeOffset1011Out" result="SvgjsFeGaussianBlur1012Out" stdDeviation=".5"/><feComposite in="SvgjsFeGaussianBlur1012Out" in2="SourceAlpha" operator="out" result="SvgjsFeComposite1013Out"/></filter></defs><path fill="#fff" fill-opacity=".85" d="M249.35 393.44l4.65-3.94v9.5zm-9.3-4.44h13.91l-6.95 5.86zm6.96 6.43l2.04-1.72 4.43 5.29h-12.94l4.43-5.24zM240 399v-9.49l4.65 3.94z" filter="url(#a)" transform="translate(-239 -377)"/><path fill="#dcb15d" d="M10.35 16.44L15 12.5V22zM1.05 12h13.92L8 17.86zm6.96 6.43l2.04-1.72L14.48 22H1.54l4.43-5.24zM1 22v-9.5l4.65 3.94z"/><path fill="#dcb15d" d="M10.35 16.44L15 12.5V22zM1.05 12h13.92L8 17.86zm6.96 6.43l2.04-1.72L14.48 22H1.54l4.43-5.24zM1 22v-9.5l4.65 3.94z"/><path fill="#dcb15d" d="M10.35 16.44L15 12.5V22zM1.05 12h13.92L8 17.86zm6.96 6.43l2.04-1.72L14.48 22H1.54l4.43-5.24zM1 22v-9.5l4.65 3.94zM31.89 36.9L30 38l8.67-19.4L30 .46 31.1 0 40 18.64z"/></svg>