<svg xmlns="http://www.w3.org/2000/svg" width="40" height="38" viewBox="0 0 40 38"><defs><filter id="a" width="200%" height="200%" x="-50%" y="-50%"><feMorphology in="SourceGraphic" operator="dilate" result="SvgjsFeMorphology1022Out"/><feOffset dy="1" in="SvgjsFeMorphology1022Out" result="SvgjsFeOffset1023Out"/><feGaussianBlur in="SvgjsFeOffset1023Out" result="SvgjsFeGaussianBlur1024Out" stdDeviation=".5"/><feComposite in="SvgjsFeGaussianBlur1024Out" in2="SourceAlpha" operator="out" result="SvgjsFeComposite1025Out"/></filter></defs><path fill="#fff" fill-opacity=".85" d="M241.87 424.2c-.75.55-2.87 3.6 1.1 10.51 4.17 7.29 8.14 6.99 8.93 6.5l-2.81-4.78c-.67.4-1.23-.26-2.26-1.66-.02-.01-2.02-3.4-2.03-3.44-.4-.9-.74-1.84-.05-2.25zm11.75 16c.3-.19.38-.57.21-.85l-2.2-3.73a.61.61 0 0 0-.83-.21l-1.35.8 2.82 4.79 1.35-.8zm-7.15-12.13c.3-.19.38-.57.21-.85l-2.26-3.83a.61.61 0 0 0-.84-.22l-1.34.8 2.88 4.9 1.35-.8z" filter="url(#a)" transform="translate(-239 -415)"/><path fill="#dcb15d" d="M2.87 9.2c-.75.55-2.87 3.6 1.1 10.51 4.17 7.29 8.14 6.99 8.93 6.5l-2.81-4.78c-.67.4-1.23-.26-2.26-1.66-.02-.01-2.02-3.4-2.03-3.44-.4-.9-.74-1.84-.05-2.25zm11.75 16c.3-.19.38-.57.21-.85l-2.2-3.73a.61.61 0 0 0-.83-.21l-1.35.8L13.27 26l1.35-.8zM7.47 13.07c.3-.19.38-.57.21-.85L5.42 8.39a.61.61 0 0 0-.84-.22l-1.34.8 2.88 4.9 1.35-.8z"/><path fill="#dcb15d" d="M2.87 9.2c-.75.55-2.87 3.6 1.1 10.51 4.17 7.29 8.14 6.99 8.93 6.5l-2.81-4.78c-.67.4-1.23-.26-2.26-1.66-.02-.01-2.02-3.4-2.03-3.44-.4-.9-.74-1.84-.05-2.25zm11.75 16c.3-.19.38-.57.21-.85l-2.2-3.73a.61.61 0 0 0-.83-.21l-1.35.8L13.27 26l1.35-.8zM7.47 13.07c.3-.19.38-.57.21-.85L5.42 8.39a.61.61 0 0 0-.84-.22l-1.34.8 2.88 4.9 1.35-.8z"/><path fill="#dcb15d" d="M2.87 9.2c-.75.55-2.87 3.6 1.1 10.51 4.17 7.29 8.14 6.99 8.93 6.5l-2.81-4.78c-.67.4-1.23-.26-2.26-1.66-.02-.01-2.02-3.4-2.03-3.44-.4-.9-.74-1.84-.05-2.25zm11.75 16c.3-.19.38-.57.21-.85l-2.2-3.73a.61.61 0 0 0-.83-.21l-1.35.8L13.27 26l1.35-.8zM7.47 13.07c.3-.19.38-.57.21-.85L5.42 8.39a.61.61 0 0 0-.84-.22l-1.34.8 2.88 4.9 1.35-.8zM31.89 36.9L30 38l8.67-19.4L30 .46 31.1 0 40 18.64z"/></svg>