<svg xmlns="http://www.w3.org/2000/svg" width="32" height="24" viewBox="0 0 32 24"><defs><filter id="a" width="200%" height="200%" x="-50%" y="-50%"><feMorphology in="SourceGraphic" operator="dilate" result="SvgjsFeMorphology1045Out"/><feOffset dy="2" in="SvgjsFeMorphology1045Out" result="SvgjsFeOffset1046Out"/><feGaussianBlur in="SvgjsFeOffset1046Out" result="SvgjsFeGaussianBlur1047Out" stdDeviation="1"/><feComposite in="SvgjsFeGaussianBlur1047Out" in2="SourceAlpha" operator="out" result="SvgjsFeComposite1048Out"/></filter></defs><path fill="#fff" fill-opacity=".85" d="M498.7 786.88L508 779V798zM480.1 778h27.83l-13.91 11.72zm13.91 12.87l4.09-3.46 8.86 10.59h-25.88l8.86-10.48zM480 797.99V779l9.3 7.88z" filter="url(#a)" transform="translate(-478 -778)"/><path fill="#dcb15d" d="M20.7 8.88L30 1V20zM2.1 0h27.83L16.02 11.72zm13.91 12.87L20.1 9.4 28.96 20H3.08l8.86-10.48zM2 19.99V1l9.3 7.88z"/><path fill="#dcb15d" d="M20.7 8.88L30 1V20zM2.1 0h27.83L16.02 11.72zm13.91 12.87L20.1 9.4 28.96 20H3.08l8.86-10.48zM2 19.99V1l9.3 7.88z"/><path fill="#dcb15d" d="M20.7 8.88L30 1V20zM2.1 0h27.83L16.02 11.72zm13.91 12.87L20.1 9.4 28.96 20H3.08l8.86-10.48zM2 19.99V1l9.3 7.88z"/></svg>