<svg xmlns="http://www.w3.org/2000/svg" width="18" height="21" viewBox="0 0 18 21"><defs><filter id="a" width="200%" height="200%" x="-50%" y="-50%"><feMorphology in="SourceGraphic" operator="dilate" result="SvgjsFeMorphology1010Out"/><feOffset dy="1" in="SvgjsFeMorphology1010Out" result="SvgjsFeOffset1011Out"/><feGaussianBlur in="SvgjsFeOffset1011Out" result="SvgjsFeGaussianBlur1012Out" stdDeviation=".5"/><feComposite in="SvgjsFeGaussianBlur1012Out" in2="SourceAlpha" operator="out" result="SvgjsFeComposite1013Out"/></filter></defs><path fill="#fff" fill-opacity=".85" d="M389 1313v-10.48h1.97v-3.28a5.25 5.25 0 0 1 5.25-5.24h.65c2.9 0 5.25 2.35 5.25 5.24v3.28h1.97V1313zm7.05-5.38l-.49 3.41h1.97l-.49-3.41a1.31 1.31 0 1 0-.99 0zm4.1-8.05a3.6 3.6 0 0 0-7.21 0v2.95h7.22z" filter="url(#a)" transform="translate(-388 -1294)"/><path fill="#fff" d="M1 19V8.52h1.97V5.24A5.25 5.25 0 0 1 8.22 0h.65c2.9 0 5.26 2.35 5.26 5.24v3.28h1.96V19zm7.05-5.38l-.49 3.41h1.97l-.49-3.41a1.31 1.31 0 1 0-.99 0zm4.1-8.05a3.6 3.6 0 0 0-7.21 0v2.95h7.22z"/><path fill="#fff" d="M1 19V8.52h1.97V5.24A5.25 5.25 0 0 1 8.22 0h.65c2.9 0 5.26 2.35 5.26 5.24v3.28h1.96V19zm7.05-5.38l-.49 3.41h1.97l-.49-3.41a1.31 1.31 0 1 0-.99 0zm4.1-8.05a3.6 3.6 0 0 0-7.21 0v2.95h7.22z"/><path fill="#9c9c9c" d="M1 19V8.52h1.97V5.24A5.25 5.25 0 0 1 8.22 0h.65c2.9 0 5.26 2.35 5.26 5.24v3.28h1.96V19zm7.05-5.38l-.49 3.41h1.97l-.49-3.41a1.31 1.31 0 1 0-.99 0zm4.1-8.05a3.6 3.6 0 0 0-7.21 0v2.95h7.22z"/></svg>