<svg xmlns="http://www.w3.org/2000/svg" width="24" height="21" viewBox="0 0 24 21"><defs><filter id="a" width="200%" height="200%" x="-50%" y="-50%"><feMorphology in="SourceGraphic" operator="dilate" result="SvgjsFeMorphology1021Out"/><feOffset dy="1" in="SvgjsFeMorphology1021Out" result="SvgjsFeOffset1022Out"/><feGaussianBlur in="SvgjsFeOffset1022Out" result="SvgjsFeGaussianBlur1023Out" stdDeviation=".5"/><feComposite in="SvgjsFeGaussianBlur1023Out" in2="SourceAlpha" operator="out" result="SvgjsFeComposite1024Out"/></filter></defs><path fill="#fff" fill-opacity=".85" d="M440.03 1290.52v-2.95a3.6 3.6 0 0 0-7.22 0v2.99h3.28V1301H421v-10.48h9.84v-3.28a5.25 5.25 0 0 1 5.25-5.24h.66c2.9 0 5.25 2.35 5.25 5.24v3.28zm-11.48 2.58a1.3 1.3 0 0 0-.5 2.52l-.49 3.41h1.97l-.49-3.41a1.31 1.31 0 0 0-.5-2.52z" filter="url(#a)" transform="translate(-419.5 -1282)"/><path fill="#fff" d="M20.53 8.52V5.57a3.6 3.6 0 0 0-7.22 0v2.99h3.28V19H1.5V8.52h9.84V5.24A5.25 5.25 0 0 1 16.6 0h.66c2.9 0 5.25 2.35 5.25 5.24v3.28zM9.05 11.1a1.3 1.3 0 0 0-.5 2.52l-.49 3.41h1.97l-.49-3.41a1.31 1.31 0 0 0-.5-2.52z"/><path fill="#fff" d="M20.53 8.52V5.57a3.6 3.6 0 0 0-7.22 0v2.99h3.28V19H1.5V8.52h9.84V5.24A5.25 5.25 0 0 1 16.6 0h.66c2.9 0 5.25 2.35 5.25 5.24v3.28zM9.05 11.1a1.3 1.3 0 0 0-.5 2.52l-.49 3.41h1.97l-.49-3.41a1.31 1.31 0 0 0-.5-2.52z"/><path fill="#9c9c9c" d="M20.53 8.52V5.57a3.6 3.6 0 0 0-7.22 0v2.99h3.28V19H1.5V8.52h9.84V5.24A5.25 5.25 0 0 1 16.6 0h.66c2.9 0 5.25 2.35 5.25 5.24v3.28zM9.05 11.1a1.3 1.3 0 0 0-.5 2.52l-.49 3.41h1.97l-.49-3.41a1.31 1.31 0 0 0-.5-2.52z"/></svg>