<?xml version="1.0" standalone="no"?>
<!DOCTYPE svg PUBLIC "-//W3C//DTD SVG 1.1//EN" "http://www.w3.org/Graphics/SVG/1.1/DTD/svg11.dtd" >
<svg xmlns="http://www.w3.org/2000/svg" xmlns:xlink="http://www.w3.org/1999/xlink" version="1.1">
<metadata></metadata>
<defs>
<font id="open_sansregular" horiz-adv-x="8" >
<font-face units-per-em="14" ascent="11" descent="-3" />
<missing-glyph horiz-adv-x="3" />
<glyph unicode="&#xfb01;" d="M0 7l2 1q0 3 2 3q1 0 1 -1h-1.5t-0.5 -0.5v-1.5v-1h2h-2v-7h-1v7h-2zM6 0v7h1v-7h-1zM6 9v0.5v0.5h0.5h0.5v-1h-0.5h-0.5z" />
<glyph unicode="&#xfb02;" d="M0 7l2 1q0 3 2 3q1 0 1 -1h-1.5t-0.5 -0.5v-1.5v-1h2h-2v-7h-1v7h-2zM6 0v11h1v-11h-1z" />
<glyph unicode="&#xfb03;" horiz-adv-x="13" d="M0 7l2 1q0 3 2 3q1 0 1 -1h-1.5t-0.5 -0.5v-1.5v-1h2h-2v-7h-1v7h-2zM5 7l2 1q0 3 2 3q1 0 1 -1h-1.5t-0.5 -0.5v-1.5v-1h2h-2v-7h-1v7h-2zM10 0v7h1v-7h-1zM10 9v0.5v0.5h0.5h0.5v-1h-0.5h-0.5z" />
<glyph unicode="&#xfb04;" horiz-adv-x="13" d="M0 7l2 1q0 3 2 3q1 0 1 -1h-1.5t-0.5 -0.5v-1.5v-1h2h-2v-7h-1v7h-2zM5 7l2 1q0 3 2 3q1 0 1 -1h-1.5t-0.5 -0.5v-1.5v-1h2h-2v-7h-1v7h-2zM10 0v11h1v-11h-1z" />
<glyph horiz-adv-x="0" />
<glyph unicode="&#xd;" horiz-adv-x="7" />
<glyph unicode=" "  horiz-adv-x="3" />
<glyph unicode="&#x09;" horiz-adv-x="3" />
<glyph unicode="&#xa0;" horiz-adv-x="3" />
<glyph unicode="!" horiz-adv-x="3" d="M1 1q0 1 1 1l0.5 -0.5t0.5 -1t-0.5 -0.5h-0.5h-0.5t-0.5 1zM1 10h2l-1 -7z" />
<glyph unicode="&#x22;" horiz-adv-x="5" d="M1 6v4h1v-4h-1zM3 10h2l-1 -4z" />
<glyph unicode="#" horiz-adv-x="9" d="M0 3v1h2l1 2h-2v1h2v3h1v-3h2l1 3v-3h2v-1h-2l-1 -2h2v-1h-2v-3h-1v3h-2v-3h-1v3h-2zM3 4h2l1 2h-2z" />
<glyph unicode="$" d="M1 1v1h1h2v3q-2 0 -2.5 0.5t-0.5 1.5t0.5 1.5t2.5 0.5v2v-2h3v-1h-3v-2q2 -1 2.5 -1t0.5 -0.5v-1.5t-0.5 -1.5t-2.5 -0.5v-2v2h-2h-1zM2 7.5q0 -0.5 0.5 -1t1.5 -0.5v2h-1.5t-0.5 -0.5zM4 2q2 0 2 1l-0.5 0.5t-1.5 0.5v-2z" />
<glyph unicode="%" horiz-adv-x="11" d="M1 7q0 2 0.5 2.5t1.5 0.5t1.5 -0.5t0.5 -2.5t-0.5 -2.5t-1.5 -0.5t-1.5 0.5t-0.5 2.5zM2 0l6 10h1l-5 -10h-2zM2 5.5q0 -0.5 1 -0.5t1 2t-1 2t-1 -0.5v-1.5v-1.5zM7 3q0 2 0.5 2.5t1.5 0.5t1.5 -0.5t0.5 -2.5t-0.5 -2.5t-1.5 -0.5t-1.5 0.5t-0.5 2.5zM8 1.5 q0 -0.5 1 -0.5l0.5 0.5t0.5 1.5t-0.5 1.5l-0.5 0.5q-1 0 -1 -0.5v-1.5v-1.5z" />
<glyph unicode="&#x26;" horiz-adv-x="10" d="M1 3l0.5 1t1.5 2q-1 0 -1 0.5v1v0.5q0 1 0.5 1.5t1.5 0.5t2 -0.5t1 -1.5t-0.5 -1.5l-1.5 -1.5l2 -2q1 0 1 0.5v1.5h2q-1 -2 -2 -3l2 -2h-1l-2 1q0 -1 -1 -1h-2q-2 0 -2.5 0.5t-0.5 2.5zM2 3q0 -1 0.5 -1.5t1.5 -0.5q2 0 3 1l-3 3q-1 -1 -1.5 -1t-0.5 -0.5v-0.5zM3 7.5 q0 -0.5 1 -1.5l1 1v1v1h-0.5h-1t-0.5 -0.5v-1z" />
<glyph unicode="'" horiz-adv-x="3" d="M1 6v4h1v-4h-1z" />
<glyph unicode="(" horiz-adv-x="4" d="M1 4q0 2 0.5 3.5t1.5 2.5h1q-1 -1 -1.5 -2.5t-0.5 -3.5t0.5 -3.5t1.5 -2.5h-1q-1 1 -1.5 2.5t-0.5 3.5z" />
<glyph unicode=")" horiz-adv-x="4" d="M0 -2q1 1 1.5 2.5t0.5 3.5t-0.5 3.5t-1.5 2.5h2q1 -1 1.5 -2.5t0.5 -3.5t-0.5 -3.5t-1.5 -2.5h-2z" />
<glyph unicode="*" horiz-adv-x="7" d="M1 7v2l2 -1v3h1v-3l3 1v-2h-3l2 -2l-1 -1l-1 3l-1 -3l-1 1l1 2h-2z" />
<glyph unicode="+" d="M1 4v1h3v3v-3h3v-1h-3v-2v2h-3z" />
<glyph unicode="," horiz-adv-x="3" d="M0 -2q1 1 1 2v2h1v-1v-1t-1 -2h-1z" />
<glyph unicode="-" horiz-adv-x="4" d="M1 3v1h3v-1h-3z" />
<glyph unicode="." horiz-adv-x="3" d="M1 0v0.5v1t0.5 0.5t1 -0.5t0.5 -1t-0.5 -0.5h-1h-0.5z" />
<glyph unicode="/" horiz-adv-x="5" d="M0 0l4 10h1l-4 -10h-1z" />
<glyph unicode="0" d="M1 5q0 3 0.5 4t2.5 1t2.5 -1t0.5 -4t-0.5 -4t-2.5 -1t-2.5 1t-0.5 4zM2 5q0 -2 0.5 -3t1.5 -1t1.5 1t0.5 3t-0.5 3t-1.5 1t-1.5 -1t-0.5 -3z" />
<glyph unicode="1" d="M1 8l3 2h1v-10h-1v7v2l-0.5 -0.5l-1.5 -1.5z" />
<glyph unicode="2" d="M1 0v1l2 3q2 1 2 1.5t0.5 1l0.5 0.5q0 1 -0.5 1.5t-1.5 0.5h-1.5t-1.5 -1v1q1 1 3 1q1 0 2 -0.5t1 -2.5l-0.5 -1t-2.5 -3l-2 -2h5v-1h-6z" />
<glyph unicode="3" d="M1 0v1h1h1q3 0 3 2t-3 2h-1v1h1q1 0 2 0.5t1 1t-0.5 1t-1.5 0.5h-1.5t-1.5 -1v1q0 1 1 1h2t2 -0.5t1 -1.5t-0.5 -2t-1.5 -1q1 0 1.5 -0.5t0.5 -1.5q0 -2 -1 -2.5t-3 -0.5h-1h-1z" />
<glyph unicode="4" d="M0 2v1l5 7h1v-7h2v-1h-2v-2h-1v2h-5zM1 3h4v4v2v-1z" />
<glyph unicode="5" d="M1 0v1h1h2t1.5 0.5t0.5 1.5q0 2 -3 2h-1h-1l1 5h4v-1h-4v-3h2t2 -0.5t1 -2t-1 -2.5t-2.5 -1h-2.5z" />
<glyph unicode="6" d="M1 4q0 3 1 4.5t3 1.5h2v-1h-2t-2 -1t-1 -3q1 1 2 1q2 0 2.5 -0.5t0.5 -2t-0.5 -2.5t-2 -1t-2.5 1t-1 3zM2 3l0.5 -0.5l1 -1l0.5 -0.5q1 0 1.5 0.5t0.5 1.5t-0.5 1.5t-1.5 0.5h-0.5t-1 -0.5t-0.5 -1.5z" />
<glyph unicode="7" d="M1 9v1h6v-1l-4 -9h-1l4 9h-5z" />
<glyph unicode="8" d="M1 3q0 1 2 2l-1.5 1.5t-0.5 1.5t1 1.5t2 0.5t2 -0.5t1 -1.5t-0.5 -1.5l-1.5 -1.5q1 0 1.5 -1l0.5 -1q0 -2 -0.5 -2.5t-2.5 -0.5t-2.5 0.5t-0.5 2.5zM2 2.5q0 -0.5 0.5 -1t1.5 -0.5t1.5 0.5t0.5 1t-0.5 1l-1.5 1.5l-1.5 -1.5t-0.5 -1zM2 7.5q0 -0.5 0.5 -1t1.5 -0.5 t1.5 0.5t0.5 1t-0.5 1t-1.5 0.5t-1.5 -0.5t-0.5 -1z" />
<glyph unicode="9" d="M1 0v1h2t2 1t1 3q0 -1 -1 -1h-1q-2 0 -2.5 0.5t-0.5 2t0.5 2.5t2.5 1q1 0 1.5 -0.5t1 -1.5t0.5 -2q0 -6 -4 -6h-2zM2 7q0 -1 0.5 -1.5t1.5 -0.5h1t1 0.5v1.5v0.5t-0.5 1t-1.5 0.5t-1.5 -0.5t-0.5 -1.5z" />
<glyph unicode=":" horiz-adv-x="3" d="M1 0v0.5v1t0.5 0.5t1 -0.5t0.5 -1t-0.5 -0.5h-1h-0.5zM1 6v1t1 1t1 -1t-0.5 -1h-1h-0.5z" />
<glyph unicode=";" horiz-adv-x="3" d="M0 -2q1 1 1 2v2h1v-1v-1t-1 -2h-1zM1 6v1t1 1t1 -1t-0.5 -1h-1h-0.5z" />
<glyph unicode="&#x3c;" d="M1 5l6 3v-1l-5 -2l5 -2v-1z" />
<glyph unicode="=" d="M1 3v1h6v-1h-6zM1 6v1h6v-1h-6z" />
<glyph unicode="&#x3e;" d="M1 2v1l5 2l-5 2v1l6 -3z" />
<glyph unicode="?" horiz-adv-x="6" d="M0 9q1 1 2.5 1t2.5 -0.5t1 -1.5t-0.5 -1.5l-0.5 -0.5l-1 -1l-1 -1v-1h-1v1.5t1 1.5q1 0 1.5 0.5t0.5 1t-0.5 1t-1.5 0.5h-1.5h-0.5h-1zM2 0v1v1q1 0 1 -0.5v-1v-0.5h-0.5h-0.5z" />
<glyph unicode="@" horiz-adv-x="12" d="M1 4q0 2 0.5 3t2 2t3.5 1q1 0 2.5 -0.5t2 -2t0.5 -2.5t-0.5 -2t-1 -1h-1h-1t-0.5 1q0 -1 -0.5 -1h-1.5t-1.5 0.5t-0.5 2t0.5 2t2.5 0.5h0.5h1.5v-3v-2q1 0 1.5 1t0.5 2t-0.5 2t-1.5 1.5t-2 0.5q-2 0 -3 -0.5t-1.5 -2t-0.5 -2.5q0 -2 1 -3t3 -1h3v-1h-3t-3.5 1t-1.5 4z M5 4q0 -2 1 -2t2 2v2h-1q-1 0 -1.5 -0.5t-0.5 -1.5z" />
<glyph unicode="A" d="M0 0l4 10h1l4 -10h-1l-2 3h-4l-1 -3h-1zM3 4h3l-1 3q0 1 -1 2v-2z" />
<glyph unicode="B" horiz-adv-x="9" d="M1 0v10h3q2 0 3 -0.5t1 -1.5t-0.5 -2t-1.5 -1q2 0 2 -2q0 -1 -1 -2t-2 -1h-4zM3 1h2q1 0 1.5 0.5t0.5 1.5t-0.5 1.5t-1.5 0.5h-2v-4zM3 6h1h2.5t0.5 1t-0.5 1.5t-2.5 0.5h-1v-3z" />
<glyph unicode="C" d="M1 5q0 2 0.5 3t1.5 1.5t2.5 0.5h2.5v-1h-2q-2 0 -3 -1t-1 -3t1 -3t3 -1h2v-1h-3t-3 1.5t-1 3.5z" />
<glyph unicode="D" horiz-adv-x="10" d="M1 0v10h3q3 0 4 -1.5t1 -3.5t-1 -3.5t-4 -1.5h-3zM3 1h1q2 0 3 1t1 3t-1 3t-3 1h-1v-8z" />
<glyph unicode="E" horiz-adv-x="7" d="M1 0v10h6v-1h-4v-3h4v-1h-4v-4h4v-1h-6z" />
<glyph unicode="F" horiz-adv-x="7" d="M1 0v10h6v-1h-4v-4h4v-1h-4v-4h-2z" />
<glyph unicode="G" horiz-adv-x="10" d="M1 5q0 2 0.5 3t1.5 1.5t3 0.5h3v-1h-3q-2 0 -3 -1t-1 -3t1 -3t3 -1h2v3h-2v1h3v-5h-1.5h-1.5q-3 0 -4 1.5t-1 3.5z" />
<glyph unicode="H" horiz-adv-x="10" d="M1 0v10h2v-4h5v4h1v-10h-1v5h-5v-5h-2z" />
<glyph unicode="I" horiz-adv-x="3" d="M1 0v10h2v-10h-2z" />
<glyph unicode="J" horiz-adv-x="3" d="M-1 -1q0 -1 1 -1t1 0.5v1.5v10h1v-10q0 -1 -0.5 -2t-1.5 -1t-1 1v1z" />
<glyph unicode="K" d="M1 0v10h2v-5l4 5h1l-4 -4l5 -6h-2l-3 5l-1 -1v-4h-2z" />
<glyph unicode="L" horiz-adv-x="7" d="M1 0v10h2v-9h4v-1h-6z" />
<glyph unicode="M" horiz-adv-x="12" d="M1 0v10h2l3 -8l4 8h1v-10h-1v6v3l-3 -9h-1l-4 9v-3v-6h-1z" />
<glyph unicode="N" horiz-adv-x="10" d="M1 0v10h2l5 -8v1v1v6h1v-10h-1l-6 8v-2v-6h-1z" />
<glyph unicode="O" horiz-adv-x="10" d="M1 5q0 2 1 3.5t3.5 1.5t3.5 -1.5t1 -3.5t-1 -3.5t-3.5 -1.5t-3.5 1.5t-1 3.5zM2 5q0 -2 1 -3t2.5 -1t2.5 1t1 3t-1 3t-2.5 1t-2.5 -1t-1 -3z" />
<glyph unicode="P" d="M1 0v10h3q4 0 4 -3q0 -1 -1 -2t-3 -1h-1v-4h-2zM3 5h1q1 0 2 0.5t1 1.5t-1 1.5t-2 0.5h-1v-4z" />
<glyph unicode="Q" horiz-adv-x="10" d="M1 5q0 2 1 3.5t3.5 1.5t3.5 -1.5t1 -3.5t-0.5 -3t-2.5 -2l2 -2h-1l-2 2h-1q-2 0 -3 1.5t-1 3.5zM2 5q0 -2 1 -3t2.5 -1t2.5 1t1 3t-1 3t-2.5 1t-2.5 -1t-1 -3z" />
<glyph unicode="R" d="M1 0v10h3q2 0 3 -0.5t1 -2.5t-2 -3l2 -4h-1l-2 4h-2v-4h-2zM3 5h1q1 0 2 0.5t1 1.5t-1 1.5t-2 0.5h-1v-4z" />
<glyph unicode="S" horiz-adv-x="7" d="M1 0v1h1h2t1.5 0.5t0.5 1.5v1h-1.5t-1.5 1q-1 0 -1.5 1t-0.5 2t1 1.5t2.5 0.5h2.5l-1 -1h-2t-1.5 -0.5t-0.5 -1v-1t0.5 -0.5h1.5q2 -1 2.5 -1.5t0.5 -1.5q0 -2 -1 -2.5t-2.5 -0.5h-2.5z" />
<glyph unicode="T" horiz-adv-x="7" d="M0 9v1h8v-1h-4v-9h-1v9h-3z" />
<glyph unicode="U" horiz-adv-x="10" d="M1 4v6h1v-7q0 -1 1 -1.5t2 -0.5t2 0.5t1 1.5v7h1v-6q0 -2 -1 -3t-3 -1t-3 1t-1 3z" />
<glyph unicode="V" d="M0 10h1l3 -6v-3q0 1 1 3l2 6h1l-3 -10h-1z" />
<glyph unicode="W" horiz-adv-x="12" d="M0 10h1l2 -6v-3q1 2 1 3l2 6h1l2 -6v-3q1 1 1 3l2 6h1l-3 -10h-1l-2 7l-1 1v1v-2l-2 -7h-1z" />
<glyph unicode="X" d="M0 0l3 5l-3 5h2l2 -4l3 4h1l-3 -5l3 -5h-1l-3 4l-3 -4h-1z" />
<glyph unicode="Y" horiz-adv-x="7" d="M0 10h1l3 -5l3 5h1l-3 -6v-4h-2v4z" />
<glyph unicode="Z" horiz-adv-x="7" d="M1 0v1l5 8h-5v1h6v-1l-5 -8h5v-1h-6z" />
<glyph unicode="[" horiz-adv-x="4" d="M1 -2v12h3v-1h-2v-10h2v-1h-3z" />
<glyph unicode="\" horiz-adv-x="5" d="M0 10h1l4 -10h-1z" />
<glyph unicode="]" horiz-adv-x="4" d="M0 -1h2v10h-2v1h3v-12h-3v1z" />
<glyph unicode="^" horiz-adv-x="7" d="M0 4l3 6h1l3 -6h-1l-2 5l-3 -5h-1z" />
<glyph unicode="_" horiz-adv-x="6" d="M0 -1h6v-1h-6v1z" />
<glyph unicode="`" d="M3 11h1q0 -1 0.5 -1.5l0.5 -0.5v-1l-1.5 1.5t-0.5 1.5z" />
<glyph unicode="a" horiz-adv-x="7" d="M1 2q0 2 3 2h2v1q0 1 -0.5 1.5t-1.5 0.5t-2 -1l-1 1q1 0 1.5 0.5t1.5 0.5t2 -1t1 -2v-5h-1v1q-1 -1 -1.5 -1h-1.5t-1.5 0.5t-0.5 1.5zM2 2v-1h1q1 0 2 0.5t1 1.5v1h-2q-1 0 -1.5 -0.5t-0.5 -1.5z" />
<glyph unicode="b" d="M1 0v11h1v-3v-2q1 2 2.5 2t2.5 -1t1 -3t-1 -3t-2 -1h-1.5t-1.5 1v-1h-1zM2 4q0 -2 0.5 -2.5t2 -0.5t2 0.5t0.5 2t-0.5 2.5t-2 1t-2 -1t-0.5 -2z" />
<glyph unicode="c" horiz-adv-x="6" d="M1 4q0 2 1 3t2 1h2v-1v-1q-1 0 -1 0.5t-1 0.5q-2 0 -2 -3q0 -2 0.5 -2.5t1.5 -0.5h2v-1h-2t-2 1t-1 3z" />
<glyph unicode="d" d="M1 4q0 2 0.5 3t2 1t2.5 -1v1v3h1v-11h-1v1q-1 -1 -2.5 -1t-2 1t-0.5 3zM2 3.5q0 -1.5 0.5 -2t1.5 -0.5t1.5 0.5t0.5 1.5v1q0 1 -0.5 2t-1.5 1t-1.5 -1t-0.5 -2.5z" />
<glyph unicode="e" horiz-adv-x="7" d="M1 3.5q0 1.5 1 3t2 1.5t2 -1t1 -3h-5q0 -2 0.5 -2.5t2 -0.5h2.5v-1h-1.5h-1.5t-2 1t-1 2.5zM2 4h4q0 2 -0.5 2.5t-1.5 0.5t-1.5 -0.5t-0.5 -2.5z" />
<glyph unicode="f" horiz-adv-x="4" d="M0 7l2 1q0 3 2 3q1 0 1 -1h-1.5t-0.5 -0.5v-1.5v-1h2h-2v-7h-1v7h-2z" />
<glyph unicode="g" horiz-adv-x="7" d="M0 -1l0.5 0.5l1.5 1.5h-0.5t-0.5 0.5t0.5 1l0.5 0.5l-0.5 0.5t-0.5 1.5t0.5 2t2.5 1l1 -1h2h-1v-1v-1t-0.5 -1.5t-1.5 -0.5h-1l-1 -1v-1h1h2q1 0 1.5 -0.5t0.5 -1.5t-1 -1.5t-3 -0.5q-1 0 -2 0.5t-1 1.5zM1 -1.5q0 -0.5 0.5 -0.5h1.5h2.5t0.5 1t-0.5 1h-1.5h-1 q-1 0 -1.5 -0.5t-0.5 -1zM2 5q0 -1 0.5 -1h1.5t1 1.5t-1 1.5t-1.5 -0.5t-0.5 -1.5z" />
<glyph unicode="h" d="M1 0v11h1v-4v-1l1.5 1.5t1.5 0.5t1.5 -1t0.5 -2v-5h-1v5v1l-1 1q-2 0 -2.5 -1t-0.5 -2v-4h-1z" />
<glyph unicode="i" horiz-adv-x="3" d="M1 0v7h1v-7h-1zM1 9v1v0h1v0v-1h-1z" />
<glyph unicode="j" horiz-adv-x="3" d="M-1 -2h1h1v1v8h1v-8q0 -2 -2 -2h-1v1zM1 9v0.5v0.5h0.5h0.5v-1h-0.5h-0.5z" />
<glyph unicode="k" horiz-adv-x="7" d="M1 0v11h1v-6v-1q1 0 1 1l3 2h1l-3 -3l3 -4h-1l-3 4l-1 -1v-3h-1z" />
<glyph unicode="l" horiz-adv-x="3" d="M1 0v11h1v-11h-1z" />
<glyph unicode="m" horiz-adv-x="13" d="M1 0v7h1v-1l1.5 1.5t1.5 0.5t2 -2q0 1 1 2h1q2 0 2.5 -1t0.5 -2v-5h-1v5q0 1 -0.5 1.5t-1.5 0.5t-1.5 -1t-0.5 -2v-4h-1v5q0 1 -0.5 1.5t-1.5 0.5t-1.5 -1t-0.5 -2v-4h-1z" />
<glyph unicode="n" d="M1 0v7h1v-1l1.5 1.5t1.5 0.5t1.5 -1t0.5 -2v-5h-1v5v1l-1 1q-2 0 -2.5 -1t-0.5 -2v-4h-1z" />
<glyph unicode="o" d="M1 4q0 2 1 3t2.5 1t2.5 -1t1 -3t-1 -3t-3 -1q-1 0 -1.5 0.5t-1 1.5t-0.5 2zM2 3.5q0 -1.5 0.5 -2t1.5 -0.5t1.5 0.5t0.5 2t-0.5 2.5t-1.5 1t-1.5 -1t-0.5 -2.5z" />
<glyph unicode="p" d="M1 -3v10h1v-1l1.5 1.5t1.5 0.5t2 -1t1 -3t-1 -3t-2 -1h-1.5t-1.5 1v-1v-3h-1zM2 4q0 -2 0.5 -2.5t2 -0.5t2 0.5t0.5 2t-0.5 2.5t-2 1t-2 -1t-0.5 -2z" />
<glyph unicode="q" d="M1 4q0 2 0.5 3t2 1t2.5 -2v1h1v-10h-1v3v1q-1 -1 -2.5 -1t-2 1t-0.5 3zM2 4q0 -2 0.5 -2.5t1.5 -0.5t1.5 0.5t0.5 1.5v1q0 1 -0.5 2t-1.5 1t-1.5 -1t-0.5 -2z" />
<glyph unicode="r" horiz-adv-x="5" d="M1 0v7h1v-1l1.5 1.5t1.5 0.5h1l-1 -2v1q-1 0 -2 -1t-1 -2v-4h-1z" />
<glyph unicode="s" horiz-adv-x="6" d="M1 0v1h1h1h1.5t0.5 0.5t-0.5 1t-1.5 1t-1.5 0.5t-0.5 0.5v1.5t0.5 1.5t2 0.5t2.5 -1l-1 -1q-1 1 -1.5 1t-1 -0.5l-0.5 -0.5v-1v0q1 0 2 -1q1 0 1.5 -0.5t0.5 -1.5t-1 -1.5t-2 -0.5h-2z" />
<glyph unicode="t" horiz-adv-x="4" d="M0 7l1 1l1 1v-2h3h-3v-5v0q1 -1 2 -1h1v-1h-1h-1q-2 0 -2 2v5h-1z" />
<glyph unicode="u" d="M1 3v4h1v-4q0 -1 0.5 -1.5t1.5 -0.5t1.5 0.5t0.5 2.5v3h1v-7h-1v1q0 -1 -0.5 -1h-1.5q-2 0 -2.5 0.5t-0.5 2.5z" />
<glyph unicode="v" horiz-adv-x="7" d="M0 7h1l2 -4v-2h1v1q0 2 2 5h1l-3 -7h-1z" />
<glyph unicode="w" horiz-adv-x="10" d="M0 7h1q1 -2 1.5 -3.5t0.5 -2.5v1v1l2 4h1l1 -4q1 -1 1 -2v1l2 5h1l-2 -7h-2l-1 4q0 1 -1 2v-2l-1 -4h-2z" />
<glyph unicode="x" horiz-adv-x="7" d="M0 0l3 4l-3 3h2l2 -2l2 2h1l-3 -3l3 -4h-1l-2 3l-2 -3h-2z" />
<glyph unicode="y" horiz-adv-x="7" d="M0 -2h1t2 1v1l-3 7h1l2 -4q0 -1 1 -2v1t2 5h1l-3 -8l-1.5 -1.5t-1.5 -0.5h-1v1z" />
<glyph unicode="z" horiz-adv-x="6" d="M1 0v1l4 6h-4h5l-4 -6h4v-1h-5z" />
<glyph unicode="{" horiz-adv-x="5" d="M0 3v1q1 0 1.5 0.5t0.5 1.5v2q0 1 1 1.5t2 0.5v-1q-2 0 -2 -1v-2q0 -2 -1 -2q1 0 1 -2v-2q0 -1 0.5 -1h1.5v-1q-1 0 -2 0.5t-1 1.5v2q0 1 -0.5 1h-1.5z" />
<glyph unicode="|" horiz-adv-x="7" d="M3 -3v14h1v-14h-1z" />
<glyph unicode="}" horiz-adv-x="5" d="M0 -1h1.5t0.5 1v2q0 1 0.5 1.5t1.5 0.5q-2 0 -2 2v2q0 1 -2 1v1q2 0 2.5 -0.5t0.5 -1.5v-2q0 -1 0.5 -1.5t1.5 -0.5v-1h-1.5t-0.5 -1v-2q0 -1 -0.5 -1.5t-2.5 -0.5v1z" />
<glyph unicode="~" d="M1 4v1q0 1 1 1h1.5t1 -0.5l0.5 -0.5h0.5h1t0.5 1v-1q0 -1 -1 -1h-1.5t-1 0.5l-0.5 0.5h-0.5t-0.5 -1h-1z" />
<glyph unicode="&#xa1;" horiz-adv-x="3" d="M1 -3v8h1l1 -8h-2zM1 6v0.5v1t0.5 0.5t1 -0.5l0.5 -0.5q0 -1 -1 -1h-1z" />
<glyph unicode="&#xa2;" d="M1 5q0 4 3 4v1h1v-1h0.5h1.5l-1 -1h-1t-2 -0.5t-1 -2t1 -2.5t2 -1t2 1v-1q-1 -1 -2 -1v-1h-1v1q-1 0 -2 1t-1 3z" />
<glyph unicode="&#xa3;" d="M0 0v1q2 0 2 2v1h-2v1h2v3q0 1 0.5 1.5t2.5 0.5h2v-1h-2t-1.5 -0.5t-0.5 -1.5v-2h3v-1h-3v-1v-1.5t-1 -0.5h5v-1h-7z" />
<glyph unicode="&#xa4;" d="M1 2l1 1q-1 1 -1 2t1 2h-1v1l1 -1q1 1 2 1t2 -1l1 1v-1h-1q1 -1 1 -2t-1 -2l1 -1l-1 1q-1 -1 -2 -1t-2 1zM2 5q0 -1 0.5 -1.5t1.5 -0.5t1.5 0.5t0.5 1.5t-0.5 1.5t-1.5 0.5t-1.5 -0.5t-0.5 -1.5z" />
<glyph unicode="&#xa5;" d="M0 10h1l3 -5l3 5h1l-3 -5h2v-1h-2v-1h2v-1h-2v-2h-2v2h-2v1h2v1h-2v1h2z" />
<glyph unicode="&#xa6;" horiz-adv-x="7" d="M3 2h1v-5h-1v5zM3 5v6h1v-6h-1z" />
<glyph unicode="&#xa7;" horiz-adv-x="7" d="M1 0v1h1h1h1.5t0.5 0.5v1t-0.5 0.5t-1.5 0.5t-1.5 0.5t-0.5 0.5v1t0.5 1l0.5 0.5q0 1 -0.5 1t-0.5 1t0.5 1.5t2.5 0.5l0.5 -0.5t1.5 -0.5v-1q-1 1 -1.5 1h-0.5q-1 0 -1.5 -0.5l-0.5 -0.5l0.5 -0.5t1.5 -0.5l1.5 -1.5t0.5 -1v-1t-1 -0.5q1 -1 1 -2t-0.5 -1.5t-2 -0.5h-2.5 zM2 5.5q0 -0.5 0.5 -1t1.5 -0.5t1 1t-0.5 1.5t-1.5 0.5l-0.5 -0.5t-0.5 -1z" />
<glyph unicode="&#xa8;" d="M2 9v0.5v0.5h0.5h0.5v-0.5v-0.5h-0.5h-0.5zM5 9v0.5v0.5h1v-0.5v-0.5h-1z" />
<glyph unicode="&#xa9;" horiz-adv-x="11" d="M1 5q0 1 0.5 2.5t1.5 2t2.5 0.5t3 -0.5t2 -2t0.5 -2.5t-0.5 -2.5t-2 -2t-3 -0.5t-2.5 0.5t-1.5 2t-0.5 2.5zM1 5q0 -1 1 -2t2 -1.5t2 -0.5t2 0.5t1.5 1.5t0.5 2t-0.5 2t-1.5 1.5t-2 0.5t-2 -0.5t-2 -1.5t-1 -2zM3 5q0 1 1 2t2 1h2l-1 -1h-1t-1.5 -0.5t-0.5 -1.5t0.5 -1.5 t1.5 -0.5h2v-1h-1h-1t-2 1t-1 2z" />
<glyph unicode="&#xaa;" horiz-adv-x="4" d="M0 7l1 0.5t2 0.5v1h-1h-1v1h1.5t1 -0.5l0.5 -0.5v-4l-1 1q0 -1 -1 -1t-1.5 0.5t-0.5 1.5zM1 7q0 -1 1 -1t1 1v1q-1 0 -1.5 -0.5z" />
<glyph unicode="&#xab;" horiz-adv-x="6" d="M1 4l2 3l1 -1l-2 -2l2 -3h-1zM3 4l3 3v-1l-2 -2l2 -3z" />
<glyph unicode="&#xac;" d="M1 4v1h6v-3h-1v2h-5z" />
<glyph unicode="&#xad;" horiz-adv-x="4" d="M1 3v1h3v-1h-3z" />
<glyph unicode="&#xae;" horiz-adv-x="11" d="M1 5q0 1 0.5 2.5t1.5 2t2.5 0.5t3 -0.5t2 -2t0.5 -2.5t-0.5 -2.5t-2 -2t-3 -0.5t-2.5 0.5t-1.5 2t-0.5 2.5zM1 5q0 -1 1 -2t2 -1.5t2 -0.5t2 0.5t1.5 1.5t0.5 2t-0.5 2t-1.5 1.5t-2 0.5t-2 -0.5t-2 -1.5t-1 -2zM4 2v6h2q1 0 1.5 -0.5t0.5 -1.5l-0.5 -0.5l-0.5 -0.5l1 -3 h-1l-1 2h-1v-2h-1zM5 5h1l0.5 0.5t0.5 1t-0.5 0.5h-0.5h-1v-2z" />
<glyph unicode="&#xaf;" horiz-adv-x="7" d="M0 11v1h7v-1h-7z" />
<glyph unicode="&#xb0;" horiz-adv-x="5" d="M1 8q0 1 0.5 1.5t1.5 0.5t1.5 -0.5t0.5 -1.5v-1.5t-0.5 -0.5h-1.5t-1.5 0.5t-0.5 1.5zM2 7h1h1v1v1h-1h-1v-1v-1z" />
<glyph unicode="&#xb1;" d="M1 0v1h6v-1h-6zM1 4v1h3v3v-3h3v-1h-3v-2v2h-3z" />
<glyph unicode="&#xb2;" horiz-adv-x="4" d="M0 4v1l2 1q1 1 1 1.5v0.5v0.5v0.5h-0.5h-1h-0.5h-1q1 1 2 1t1.5 -0.5t0.5 -1.5v-0.5t-1 -1.5l-2 -1h3v-1h-4z" />
<glyph unicode="&#xb3;" horiz-adv-x="4" d="M0 4v1h2q2 0 2 1t-2 1h-1h1q1 0 1 0.5v1v0.5h-0.5h-1h-0.5h-1q1 1 1.5 1h0.5q1 0 1.5 -0.5t0.5 -1v-1t-1 -0.5q1 0 1 -1t-0.5 -1.5t-1.5 -0.5h-2z" />
<glyph unicode="&#xb4;" d="M3 8v1l0.5 0.5t0.5 1.5h1q0 -1 -0.5 -1.5z" />
<glyph unicode="&#xb5;" d="M1 -3v10h1v-4q0 -2 2 -2q1 0 1.5 0.5t0.5 2.5v3h1v-7l-1 1q0 -1 -2 -1h-2v-1v-2h-1z" />
<glyph unicode="&#xb6;" horiz-adv-x="9" d="M1 7q0 2 0.5 3t2.5 1h4v-13h-1v12h-2v-12v6h-1q-2 0 -2.5 0.5t-0.5 2.5z" />
<glyph unicode="&#xb7;" horiz-adv-x="3" d="M1 4v0.5v1t0.5 0.5t1 -0.5t0.5 -1t-0.5 -0.5h-1h-0.5z" />
<glyph unicode="&#xb8;" horiz-adv-x="3" d="M0 -3h1.5t0.5 0.5v0.5v0.5t-1 0.5v1h1v-1q1 0 1 -1t-0.5 -1h-1.5h-1z" />
<glyph unicode="&#xb9;" horiz-adv-x="4" d="M1 8v1l1 1h1v-6h-1v4v1z" />
<glyph unicode="&#xba;" horiz-adv-x="5" d="M0 8q0 1 1 1.5t2 0.5t1.5 -0.5t0.5 -1.5t-0.5 -2t-1.5 -1t-2 1t-1 2zM1 8q0 -1 0.5 -1.5t1 -0.5t1 0.5t0.5 1.5t-0.5 1h-1h-1t-0.5 -1z" />
<glyph unicode="&#xbb;" horiz-adv-x="6" d="M1 1l2 3l-2 2v1l3 -3zM3 1l2 3l-2 2l1 1l2 -3l-2 -3h-1z" />
<glyph unicode="&#xbc;" horiz-adv-x="10" d="M1 0l7 10l-6 -10h-1zM1 8v1l1 1h1v-6h-1v4v1zM5 1v1l3 4h1v-4h1v-1h-1v-1h-1v1h-3zM6 2h2v2v1v-0.5v-0.5h-1z" />
<glyph unicode="&#xbd;" horiz-adv-x="10" d="M1 0l7 10l-6 -10h-1zM1 8v1l1 1h1v-6h-1v4v1zM6 0v1l2 1q1 1 1 1.5v0.5v0.5v0.5h-0.5h-0.5h-1h-1q1 1 2 1t1.5 -0.5t0.5 -1.5v-0.5t-1 -1.5l-2 -1h3v-1h-4z" />
<glyph unicode="&#xbe;" horiz-adv-x="10" d="M0 4v1h2q2 0 2 1t-2 1h-1h1q1 0 1 0.5v1v0.5h-0.5h-0.5h-1h-1q1 1 1.5 1h0.5q1 0 1.5 -0.5t0.5 -1v-1t-1 -0.5q1 0 1 -1t-0.5 -1.5t-1.5 -0.5h-2zM2 0l7 10l-6 -10h-1zM6 1v1l3 4h1v-4h1v-1h-1v-1h-1v1h-3zM7 2h2v2v1v-0.5t-1 -0.5v0z" />
<glyph unicode="&#xbf;" horiz-adv-x="6" d="M0 0l0.5 0.5t0.5 1t0.5 0.5h0.5q1 1 1 2v0v1h1v-1v-1.5t-1 -1l-1 -0.5l-0.5 -0.5l-0.5 -0.5q0 -1 0.5 -1.5t1.5 -0.5h1l1 1l1 -1q-2 -1 -3 -1t-2 1t-1 2zM3 6v0.5v1t0.5 0.5t0.5 -0.5v-0.5v-1h-1z" />
<glyph unicode="&#xc0;" d="M0 0l4 10h1l4 -10h-1l-2 3h-4l-1 -3h-1zM3 4h3l-1 3q0 1 -1 2v-2zM3 13h1v-1l1 -1v-1l-1.5 1.5t-0.5 1.5z" />
<glyph unicode="&#xc1;" d="M0 0l4 10h1l4 -10h-1l-2 3h-4l-1 -3h-1zM3 4h3l-1 3q0 1 -1 2v-2zM4 10v1l0.5 0.5t0.5 1.5h1q0 -1 -0.5 -1.5z" />
<glyph unicode="&#xc2;" d="M0 0l4 10h1l4 -10h-1l-2 3h-4l-1 -3h-1zM2 10v1l1 1l1 1h1q0 -1 0.5 -1t0.5 -1v-1l-2 2q-1 -1 -1 -2h-1zM3 4h3l-1 3q0 1 -1 2v-2z" />
<glyph unicode="&#xc3;" d="M0 0l4 10h1l4 -10h-1l-2 3h-4l-1 -3h-1zM2 10q0 1 0.5 1.5l0.5 0.5h1h0.5t0.5 -0.5t0.5 -0.5t0.5 1v0h1q0 -1 -0.5 -1.5t-1.5 -0.5v0.5t-0.5 0.5h-1h-0.5zM3 4h3l-1 3q0 1 -1 2v-2z" />
<glyph unicode="&#xc4;" d="M0 0l4 10h1l4 -10h-1l-2 3h-4l-1 -3h-1zM2 11v0.5v0.5h0.5h0.5v-0.5v-0.5h-0.5h-0.5zM3 4h3l-1 3q0 1 -1 2v-2zM5 11v0.5v0.5h1v-0.5v-0.5h-1z" />
<glyph unicode="&#xc5;" d="M0 0l4 10h1l4 -10h-1l-2 3h-4l-1 -3h-1zM3 4h3l-1 3q0 1 -1 2v-2zM3 9.5v1.5v1h1h1.5t0.5 -1t-0.5 -1.5t-1.5 -0.5t-1 0.5zM3 11l0.5 -0.5l0.5 -0.5l0.5 0.5l0.5 0.5l-0.5 0.5l-0.5 0.5l-0.5 -0.5z" />
<glyph unicode="&#xc6;" horiz-adv-x="12" d="M0 0l5 10h6v-1h-4v-3h4v-1h-4v-4h4v-1h-5v3h-3l-2 -3h-1zM3 4h3v5h-1z" />
<glyph unicode="&#xc7;" d="M1 5q0 2 0.5 3t1.5 1.5t2.5 0.5h2.5v-1h-2q-2 0 -3 -1t-1 -3t1 -3t3 -1h2v-1h-3t-3 1.5t-1 3.5zM4 -3h1.5t0.5 0.5v0.5v0.5t-1 0.5v1h1v-1q1 0 1 -1t-0.5 -1h-1.5h-1z" />
<glyph unicode="&#xc8;" horiz-adv-x="7" d="M1 0v10h6v-1h-4v-3h4v-1h-4v-4h4v-1h-6zM3 13h1v-1l1 -1v-1l-1.5 1.5t-0.5 1.5z" />
<glyph unicode="&#xc9;" horiz-adv-x="7" d="M1 0v10h6v-1h-4v-3h4v-1h-4v-4h4v-1h-6zM3 10v1l0.5 0.5t0.5 1.5h1q0 -1 -0.5 -1.5z" />
<glyph unicode="&#xca;" horiz-adv-x="7" d="M1 0v10h6v-1h-4v-3h4v-1h-4v-4h4v-1h-6zM2 10v1l1 1l1 1h1q0 -1 0.5 -1t0.5 -1v-1l-2 2q-1 -1 -1 -2h-1z" />
<glyph unicode="&#xcb;" horiz-adv-x="7" d="M1 0v10h6v-1h-4v-3h4v-1h-4v-4h4v-1h-6zM2 11v0.5v0.5h0.5h0.5v-0.5v-0.5h-0.5h-0.5zM5 11v0.5v0.5h1v-0.5v-0.5h-1z" />
<glyph unicode="&#xcc;" horiz-adv-x="3" d="M0 13h1q0 -1 1 -1v-1v-1l-1.5 1.5t-0.5 1.5zM1 0v10h2v-10h-2z" />
<glyph unicode="&#xcd;" horiz-adv-x="3" d="M1 0v10h2v-10h-2zM2 10v1l0.5 0.5t0.5 1.5h1q0 -1 -0.5 -1.5z" />
<glyph unicode="&#xce;" horiz-adv-x="3" d="M0 10v1l1 1l1 1h1q0 -1 0.5 -1t0.5 -1v-1l-2 2q-1 -1 -1 -2h-1zM1 0v10h2v-10h-2z" />
<glyph unicode="&#xcf;" horiz-adv-x="3" d="M0 11v0.5v0.5h0.5h0.5v-0.5v-0.5h-0.5h-0.5zM1 0v10h2v-10h-2zM3 11v0.5v0.5h1v-0.5v-0.5h-1z" />
<glyph unicode="&#xd0;" horiz-adv-x="10" d="M0 4v1h1v5h3q3 0 4 -1.5t1 -3.5t-1 -3.5t-4 -1.5h-3v4h-1zM3 1h1q4 0 4 4t-4 4h-1v-4h2v-1h-2v-3z" />
<glyph unicode="&#xd1;" horiz-adv-x="10" d="M1 0v10h2l5 -8v1v1v6h1v-10h-1l-6 8v-2v-6h-1zM3 10q0 1 0.5 1.5l0.5 0.5h1h0.5t0.5 -0.5t0.5 -0.5t0.5 1v0h1q0 -1 -0.5 -1.5t-1.5 -0.5v0.5t-0.5 0.5h-1h-0.5z" />
<glyph unicode="&#xd2;" horiz-adv-x="10" d="M1 5q0 2 1 3.5t3.5 1.5t3.5 -1.5t1 -3.5t-1 -3.5t-3.5 -1.5t-3.5 1.5t-1 3.5zM2 5q0 -2 1 -3t2.5 -1t2.5 1t1 3t-1 3t-2.5 1t-2.5 -1t-1 -3zM4 13h1q0 -1 1 -1v-1v-1l-1.5 1.5t-0.5 1.5z" />
<glyph unicode="&#xd3;" horiz-adv-x="10" d="M1 5q0 2 1 3.5t3.5 1.5t3.5 -1.5t1 -3.5t-1 -3.5t-3.5 -1.5t-3.5 1.5t-1 3.5zM2 5q0 -2 1 -3t2.5 -1t2.5 1t1 3t-1 3t-2.5 1t-2.5 -1t-1 -3zM5 10v1l0.5 0.5t0.5 1.5h1q0 -1 -0.5 -1.5z" />
<glyph unicode="&#xd4;" horiz-adv-x="10" d="M1 5q0 2 1 3.5t3.5 1.5t3.5 -1.5t1 -3.5t-1 -3.5t-3.5 -1.5t-3.5 1.5t-1 3.5zM2 5q0 -2 1 -3t2.5 -1t2.5 1t1 3t-1 3t-2.5 1t-2.5 -1t-1 -3zM3 10v1l1 1l1 1h1q0 -1 0.5 -1t0.5 -1v-1l-2 2q-1 -1 -1 -2h-1z" />
<glyph unicode="&#xd5;" horiz-adv-x="10" d="M1 5q0 2 1 3.5t3.5 1.5t3.5 -1.5t1 -3.5t-1 -3.5t-3.5 -1.5t-3.5 1.5t-1 3.5zM2 5q0 -2 1 -3t2.5 -1t2.5 1t1 3t-1 3t-2.5 1t-2.5 -1t-1 -3zM3 10q0 1 0.5 1.5l0.5 0.5h1h0.5t0.5 -0.5t0.5 -0.5t0.5 1v0h1q0 -1 -0.5 -1.5t-1.5 -0.5v0.5t-0.5 0.5h-1h-0.5z" />
<glyph unicode="&#xd6;" horiz-adv-x="10" d="M1 5q0 2 1 3.5t3.5 1.5t3.5 -1.5t1 -3.5t-1 -3.5t-3.5 -1.5t-3.5 1.5t-1 3.5zM2 5q0 -2 1 -3t2.5 -1t2.5 1t1 3t-1 3t-2.5 1t-2.5 -1t-1 -3zM3 11v0.5v0.5h0.5h0.5v-0.5v-0.5h-0.5h-0.5zM6 11v0.5v0.5h1v-0.5v-0.5h-1z" />
<glyph unicode="&#xd7;" d="M1 3l2 2l-2 2l1 1l2 -2l2 2l1 -1l-2 -2l2 -2l-1 -1l-2 2l-2 -2z" />
<glyph unicode="&#xd8;" horiz-adv-x="10" d="M1 0l1 1q-1 2 -1 4t1 3.5t3 1.5h3h1v-1q1 -2 1 -4t-1 -3.5t-4 -1.5q-1 0 -2 1l-1 -1h-1zM2 5q0 -2 1 -3l4 7h-2q-1 0 -2 -1t-1 -3zM3 1h2q2 0 3 1t1 3t-1 3z" />
<glyph unicode="&#xd9;" horiz-adv-x="10" d="M1 4v6h1v-7q0 -1 1 -1.5t2 -0.5t2 0.5t1 1.5v7h1v-6q0 -2 -1 -3t-3 -1t-3 1t-1 3zM3 13h1v-1l1 -1v-1l-1.5 1.5t-0.5 1.5z" />
<glyph unicode="&#xda;" horiz-adv-x="10" d="M1 4v6h1v-7q0 -1 1 -1.5t2 -0.5t2 0.5t1 1.5v7h1v-6q0 -2 -1 -3t-3 -1t-3 1t-1 3zM4 10v1l0.5 0.5t0.5 1.5h1q0 -1 -0.5 -1.5z" />
<glyph unicode="&#xdb;" horiz-adv-x="10" d="M1 4v6h1v-7q0 -1 1 -1.5t2 -0.5t2 0.5t1 1.5v7h1v-6q0 -2 -1 -3t-3 -1t-3 1t-1 3zM3 10v1l1 1l1 1h1q0 -1 0.5 -1t0.5 -1v-1l-2 2q-1 -1 -1 -2h-1z" />
<glyph unicode="&#xdc;" horiz-adv-x="10" d="M1 4v6h1v-7q0 -1 1 -1.5t2 -0.5t2 0.5t1 1.5v7h1v-6q0 -2 -1 -3t-3 -1t-3 1t-1 3zM3 11v0.5v0.5h0.5h0.5v-0.5v-0.5h-0.5h-0.5zM6 11v0.5v0.5h1v-0.5v-0.5h-1z" />
<glyph unicode="&#xdd;" horiz-adv-x="7" d="M0 10h1l3 -5l3 5h1l-3 -6v-4h-2v4zM3 10v1l0.5 0.5t0.5 1.5h1q0 -1 -0.5 -1.5z" />
<glyph unicode="&#xde;" d="M1 0v10h2v-2h1q2 0 3 -0.5t1 -2t-1 -2.5t-3 -1h-1v-2h-2zM3 3h1q1 0 2 0.5t1 1.5t-1 1.5t-2 0.5h-1v-4z" />
<glyph unicode="&#xdf;" d="M1 0v8q0 1 1 2t2.5 1t2 -0.5t0.5 -1.5t-1 -2q0 -1 -0.5 -1h-0.5v-0.5t0.5 -0.5h0.5l1.5 -1.5t0.5 -1.5t-0.5 -1.5t-1.5 -0.5h-2v1h0.5h0.5q2 0 2 1t-0.5 1t-1 0.5l-1 1t-0.5 1t0.5 1l1 1l0.5 0.5v0.5t-0.5 1t-1.5 0.5q-2 0 -2 -2v-8h-1z" />
<glyph unicode="&#xe0;" horiz-adv-x="7" d="M1 2q0 2 3 2h2v1q0 1 -0.5 1.5t-1.5 0.5t-2 -1l-1 1q1 0 1.5 0.5t1.5 0.5t2 -1t1 -2v-5h-1v1q-1 -1 -1.5 -1h-1.5t-1.5 0.5t-0.5 1.5zM2 2q0 -1 0.5 -1h0.5q1 0 2 0.5t1 1.5v1h-2q-1 0 -1.5 -0.5t-0.5 -1.5zM2 11h1q0 -1 1 -1v-1v-1l-1.5 1.5t-0.5 1.5z" />
<glyph unicode="&#xe1;" horiz-adv-x="7" d="M1 2q0 2 3 2h2v1q0 1 -0.5 1.5t-1.5 0.5t-2 -1l-1 1q1 0 1.5 0.5t1.5 0.5t2 -1t1 -2v-5h-1v1q-1 -1 -1.5 -1h-1.5t-1.5 0.5t-0.5 1.5zM2 2q0 -1 0.5 -1h0.5q1 0 2 0.5t1 1.5v1h-2q-1 0 -1.5 -0.5t-0.5 -1.5zM3 8v1l0.5 0.5t0.5 1.5h1q0 -1 -0.5 -1.5z" />
<glyph unicode="&#xe2;" horiz-adv-x="7" d="M1 2q0 2 3 2h2v1q0 1 -0.5 1.5t-1.5 0.5t-2 -1l-1 1q1 0 1.5 0.5t1.5 0.5t2 -1t1 -2v-5h-1v1q-1 -1 -1.5 -1h-1.5t-1.5 0.5t-0.5 1.5zM2 2q0 -1 0.5 -1h0.5q1 0 2 0.5t1 1.5v1h-2q-1 0 -1.5 -0.5t-0.5 -1.5zM2 8v1l1 1l1 1h1q0 -1 0.5 -1t0.5 -1v-1l-2 2q-1 -1 -1 -2h-1z " />
<glyph unicode="&#xe3;" horiz-adv-x="7" d="M1 2q0 2 3 2h2v1q0 1 -0.5 1.5t-1.5 0.5t-2 -1l-1 1q1 0 1.5 0.5t1.5 0.5t2 -1t1 -2v-5h-1v1q-1 -1 -1.5 -1h-1.5t-1.5 0.5t-0.5 1.5zM2 2q0 -1 0.5 -1h0.5q1 0 2 0.5t1 1.5v1h-2q-1 0 -1.5 -0.5t-0.5 -1.5zM2 8q0 1 0.5 1.5l0.5 0.5h1h0.5t0.5 -0.5t0.5 -0.5t0.5 1v0h1 q0 -1 -0.5 -1.5t-1.5 -0.5v0.5t-0.5 0.5h-1h-0.5z" />
<glyph unicode="&#xe4;" horiz-adv-x="7" d="M1 2q0 2 3 2h2v1q0 1 -0.5 1.5t-1.5 0.5t-2 -1l-1 1q1 0 1.5 0.5t1.5 0.5t2 -1t1 -2v-5h-1v1q-1 -1 -1.5 -1h-1.5t-1.5 0.5t-0.5 1.5zM2 2q0 -1 0.5 -1h0.5q1 0 2 0.5t1 1.5v1h-2q-1 0 -1.5 -0.5t-0.5 -1.5zM2 9v0.5v0.5h0.5h0.5v-0.5v-0.5h-0.5h-0.5zM5 9v0.5v0.5h1 v-0.5v-0.5h-1z" />
<glyph unicode="&#xe5;" horiz-adv-x="7" d="M1 2q0 2 3 2h2v1q0 1 -0.5 1.5t-1.5 0.5t-2 -1l-1 1q1 0 1.5 0.5t1.5 0.5t2 -1t1 -2v-5h-1v1q-1 -1 -1.5 -1h-1.5t-1.5 0.5t-0.5 1.5zM2 2q0 -1 0.5 -1h0.5q1 0 2 0.5t1 1.5v1h-2q-1 0 -1.5 -0.5t-0.5 -1.5zM3 8.5v1.5v1h1h1.5t0.5 -1t-0.5 -1.5t-1.5 -0.5t-1 0.5zM3 10 l0.5 -0.5l0.5 -0.5l0.5 0.5l0.5 0.5l-0.5 0.5l-0.5 0.5l-0.5 -0.5z" />
<glyph unicode="&#xe6;" horiz-adv-x="12" d="M1 2q0 1 0.5 1.5t2.5 0.5h1v1v1.5t-1 0.5t-2 -1l-1 1q1 0 1.5 0.5t1.5 0.5t1.5 -0.5t0.5 -1.5q0 1 1 1.5l1 0.5q2 0 2.5 -1t0.5 -3h-5q1 -3 3 -3h0.5h1.5v-1h-1.5h-0.5q-2 0 -3 1q-1 0 -1.5 -0.5t-1.5 -0.5t-1.5 0.5t-0.5 1.5zM2 2q0 -1 0.5 -1h0.5q1 0 1.5 0.5t0.5 1.5 v1h-1q-1 0 -1.5 -0.5t-0.5 -1.5zM7 4h3q0 2 -0.5 2.5t-1 0.5t-1 -0.5t-0.5 -2.5z" />
<glyph unicode="&#xe7;" horiz-adv-x="6" d="M1 4q0 2 1 3t2 1h2v-1v-1q-1 0 -1 0.5t-1 0.5q-2 0 -2 -3q0 -2 0.5 -2.5t1.5 -0.5h2v-1h-2t-2 1t-1 3zM2 -3h1.5t0.5 0.5v0.5v0.5t-1 0.5v1h1v-1q1 0 1 -1t-0.5 -1h-1.5h-1z" />
<glyph unicode="&#xe8;" horiz-adv-x="7" d="M1 3.5q0 1.5 1 3t2 1.5t2 -1t1 -3h-5q0 -2 0.5 -2.5t2 -0.5h2.5v-1h-1.5h-1.5t-2 1t-1 2.5zM2 4h4q0 2 -0.5 2.5t-1.5 0.5t-1.5 -0.5t-0.5 -2.5zM2 11h1q0 -1 1 -1v-1v-1l-1.5 1.5t-0.5 1.5z" />
<glyph unicode="&#xe9;" horiz-adv-x="7" d="M1 3.5q0 1.5 1 3t2 1.5t2 -1t1 -3h-5q0 -2 0.5 -2.5t2 -0.5h2.5v-1h-1.5h-1.5t-2 1t-1 2.5zM2 4h4q0 2 -0.5 2.5t-1.5 0.5t-1.5 -0.5t-0.5 -2.5zM4 8v1l0.5 0.5t0.5 1.5h1q0 -1 -0.5 -1.5z" />
<glyph unicode="&#xea;" horiz-adv-x="7" d="M1 3.5q0 1.5 1 3t2 1.5t2 -1t1 -3h-5q0 -2 0.5 -2.5t2 -0.5h2.5v-1h-1.5h-1.5t-2 1t-1 2.5zM2 4h4q0 2 -0.5 2.5t-1.5 0.5t-1.5 -0.5t-0.5 -2.5zM2 8v1l1 1l1 1h1q0 -1 0.5 -1t0.5 -1v-1l-2 2q-1 -1 -1 -2h-1z" />
<glyph unicode="&#xeb;" horiz-adv-x="7" d="M1 3.5q0 1.5 1 3t2 1.5t2 -1t1 -3h-5q0 -2 0.5 -2.5t2 -0.5h2.5v-1h-1.5h-1.5t-2 1t-1 2.5zM2 4h4q0 2 -0.5 2.5t-1.5 0.5t-1.5 -0.5t-0.5 -2.5zM2 9v0.5v0.5h0.5h0.5v-0.5v-0.5h-0.5h-0.5zM5 9v0.5v0.5h1v-0.5v-0.5h-1z" />
<glyph unicode="&#xec;" horiz-adv-x="3" d="M0 11h1q0 -1 1 -1v-1v-1l-1.5 1.5t-0.5 1.5zM1 0v7h1v-7h-1z" />
<glyph unicode="&#xed;" horiz-adv-x="3" d="M1 0v7h1v-7h-1zM1 8v1l0.5 0.5t0.5 1.5h1q0 -1 -0.5 -1.5z" />
<glyph unicode="&#xee;" horiz-adv-x="3" d="M0 8v1l1 1l1 1h1q0 -1 0.5 -1t0.5 -1v-1l-2 2q-1 -1 -1 -2h-1zM1 0v7h1v-7h-1z" />
<glyph unicode="&#xef;" horiz-adv-x="3" d="M0 9v0.5v0.5h0.5h0.5v-0.5v-0.5h-0.5h-0.5zM1 0v7h1v-7h-1zM3 9v0.5v0.5h1v-0.5v-0.5h-1z" />
<glyph unicode="&#xf0;" d="M1 3.5q0 1.5 1 2.5t2.5 1t1.5 -1q0 1 -1 3l-2 -1h-1l2 1l-1 1v1q1 -1 2 -1l1 1l1 -1l-1 -1q1 -1 1.5 -2.5t0.5 -2.5q0 -2 -1 -3t-2.5 -1t-2.5 1t-1 2.5zM2 3q0 -1 0.5 -1.5t1.5 -0.5t2 0.5t1 2.5q0 1 -1 1.5t-2 0.5q-2 0 -2 -3z" />
<glyph unicode="&#xf1;" d="M1 0v7h1v-1l1.5 1.5t1.5 0.5t1.5 -1t0.5 -2v-5h-1v5q0 1 -0.5 1.5l-0.5 0.5q-2 0 -2.5 -1t-0.5 -2v-4h-1zM2 8q0 1 0.5 1.5l0.5 0.5h1h0.5t0.5 -0.5t0.5 -0.5t0.5 1v0h1q0 -1 -0.5 -1.5t-1.5 -0.5v0.5t-0.5 0.5h-1h-0.5z" />
<glyph unicode="&#xf2;" d="M1 4q0 2 1 3t2.5 1t2.5 -1t1 -3t-1 -3t-3 -1q-1 0 -1.5 0.5t-1 1.5t-0.5 2zM2 3.5q0 -1.5 0.5 -2t1.5 -0.5t1.5 0.5t0.5 2t-0.5 2.5t-1.5 1t-1.5 -1t-0.5 -2.5zM3 11h1v-1l1 -1v-1l-1.5 1.5t-0.5 1.5z" />
<glyph unicode="&#xf3;" d="M1 4q0 2 1 3t2.5 1t2.5 -1t1 -3t-1 -3t-3 -1q-1 0 -1.5 0.5t-1 1.5t-0.5 2zM2 3.5q0 -1.5 0.5 -2t1.5 -0.5t1.5 0.5t0.5 2t-0.5 2.5t-1.5 1t-1.5 -1t-0.5 -2.5zM4 8v1l0.5 0.5t0.5 1.5h1q0 -1 -0.5 -1.5z" />
<glyph unicode="&#xf4;" d="M1 4q0 2 1 3t2.5 1t2.5 -1t1 -3t-1 -3t-3 -1q-1 0 -1.5 0.5t-1 1.5t-0.5 2zM2 3.5q0 -1.5 0.5 -2t1.5 -0.5t1.5 0.5t0.5 2t-0.5 2.5t-1.5 1t-1.5 -1t-0.5 -2.5zM2 8v1l1 1l1 1h1q0 -1 0.5 -1t0.5 -1v-1l-2 2q-1 -1 -1 -2h-1z" />
<glyph unicode="&#xf5;" d="M1 4q0 2 1 3t2.5 1t2.5 -1t1 -3t-1 -3t-3 -1q-1 0 -1.5 0.5t-1 1.5t-0.5 2zM2 3.5q0 -1.5 0.5 -2t1.5 -0.5t1.5 0.5t0.5 2t-0.5 2.5t-1.5 1t-1.5 -1t-0.5 -2.5zM2 8q0 1 0.5 1.5l0.5 0.5h1h0.5t0.5 -0.5t0.5 -0.5t0.5 1v0h1q0 -1 -0.5 -1.5t-1.5 -0.5v0.5t-0.5 0.5h-1 h-0.5z" />
<glyph unicode="&#xf6;" d="M1 4q0 2 1 3t2.5 1t2.5 -1t1 -3t-1 -3t-3 -1q-1 0 -1.5 0.5t-1 1.5t-0.5 2zM2 3.5q0 -1.5 0.5 -2t1.5 -0.5t1.5 0.5t0.5 2t-0.5 2.5t-1.5 1t-1.5 -1t-0.5 -2.5zM2 9v0.5v0.5h0.5h0.5v-0.5v-0.5h-0.5h-0.5zM5 9v0.5v0.5h1v-0.5v-0.5h-1z" />
<glyph unicode="&#xf7;" d="M1 4v1h6v-1h-6zM3 2.5q0 0.5 0.5 0.5h0.5h0.5t0.5 -0.5t-0.5 -0.5h-0.5h-0.5t-0.5 0.5zM3 7.5q0 0.5 0.5 0.5h0.5h0.5t0.5 -0.5t-0.5 -1l-0.5 -0.5l-0.5 0.5t-0.5 1z" />
<glyph unicode="&#xf8;" d="M1 0l1 1q-1 1 -1 3t1 3t2 1t2 -1l1 1v-1v-1q1 -1 1 -2.5t-1 -2.5t-3 -1h-2h-1zM2 2l4 4q-1 1 -2 1t-1.5 -1t-0.5 -2v-2zM3 1h1t1.5 0.5t0.5 2.5v2z" />
<glyph unicode="&#xf9;" d="M1 3v4h1v-4q0 -1 0.5 -1.5t1.5 -0.5t1.5 0.5t0.5 2.5v3h1v-7h-1v1q0 -1 -0.5 -1h-1.5q-2 0 -2.5 0.5t-0.5 2.5zM3 11h1v-1l1 -1v-1l-1.5 1.5t-0.5 1.5z" />
<glyph unicode="&#xfa;" d="M1 3v4h1v-4q0 -1 0.5 -1.5t1.5 -0.5t1.5 0.5t0.5 2.5v3h1v-7h-1v1q0 -1 -0.5 -1h-1.5q-2 0 -2.5 0.5t-0.5 2.5zM4 8v1l0.5 0.5t0.5 1.5h1q0 -1 -0.5 -1.5z" />
<glyph unicode="&#xfb;" d="M1 3v4h1v-4q0 -1 0.5 -1.5t1.5 -0.5t1.5 0.5t0.5 2.5v3h1v-7h-1v1q0 -1 -0.5 -1h-1.5q-2 0 -2.5 0.5t-0.5 2.5zM2 8v1l1 1l1 1h1q0 -1 0.5 -1t0.5 -1v-1l-2 2q-1 -1 -1 -2h-1z" />
<glyph unicode="&#xfc;" d="M1 3v4h1v-4q0 -1 0.5 -1.5t1.5 -0.5t1.5 0.5t0.5 2.5v3h1v-7h-1v1q0 -1 -0.5 -1h-1.5q-2 0 -2.5 0.5t-0.5 2.5zM2 9v0.5v0.5h0.5h0.5v-0.5v-0.5h-0.5h-0.5zM5 9v0.5v0.5h1v-0.5v-0.5h-1z" />
<glyph unicode="&#xfd;" horiz-adv-x="7" d="M0 -2h1t2 1v1l-3 7h1l2 -4q0 -1 1 -2v1t2 5h1l-3 -8l-1.5 -1.5t-1.5 -0.5h-1v1zM3 8v1l0.5 0.5t0.5 1.5h1q0 -1 -0.5 -1.5z" />
<glyph unicode="&#xfe;" d="M1 -3v14h1v-4v-1l1.5 1.5t1.5 0.5t2 -1t1 -3t-1 -3t-2.5 -1t-2.5 1v-1v-3h-1zM2 4q0 -2 0.5 -2.5t2.5 -0.5t2 3q0 1 -0.5 2t-2 1t-2 -1t-0.5 -2z" />
<glyph unicode="&#xff;" horiz-adv-x="7" d="M0 -2h1t2 1v1l-3 7h1l2 -4q0 -1 1 -2v1t2 5h1l-3 -8l-1.5 -1.5t-1.5 -0.5h-1v1zM1 9v0.5v0.5h0.5h0.5v-0.5v-0.5h-0.5h-0.5zM4 9v0.5v0.5h1v-0.5v-0.5h-1z" />
<glyph unicode="&#x152;" horiz-adv-x="12" d="M1 5q0 2 1 3.5t3 1.5h2h5v-1h-4v-3h4v-1h-4v-4h4v-1h-5h-1q-3 0 -4 1.5t-1 3.5zM2 5q0 -2 1 -3t3 -1h1v8h-1q-2 0 -3 -1t-1 -3z" />
<glyph unicode="&#x153;" horiz-adv-x="13" d="M1 4q0 2 1 3t2 1t1.5 -0.5l1.5 -1.5q0 1 1 1.5l1 0.5q2 0 2.5 -1t0.5 -3h-5q1 -3 3 -3h1h1v-1h-1h-1q-2 0 -3 1q-1 0 -1.5 -0.5t-1.5 -0.5t-2 1t-1 3zM2 3.5q0 -1.5 0.5 -2t1.5 -0.5t1.5 0.5t0.5 2t-0.5 2.5t-1.5 1t-1.5 -1t-0.5 -2.5zM8 4h3q0 2 -0.5 2.5t-1 0.5 t-1 -0.5t-0.5 -2.5z" />
<glyph unicode="&#x178;" horiz-adv-x="7" d="M0 10h1l3 -5l3 5h1l-3 -6v-4h-2v4zM2 11v0.5v0.5h0.5h0.5v-0.5v-0.5h-0.5h-0.5zM5 11v0.5v0.5h1v-0.5v-0.5h-1z" />
<glyph unicode="&#x2c6;" d="M2 8v1l1 1l1 1h1q0 -1 0.5 -1t0.5 -1v-1l-2 2q-1 -1 -1 -2h-1z" />
<glyph unicode="&#x2dc;" d="M2 8q0 1 0.5 1.5l0.5 0.5h1h0.5t0.5 -0.5t0.5 -0.5t0.5 1v0h1q0 -1 -0.5 -1.5t-1.5 -0.5v0.5t-0.5 0.5h-1h-0.5z" />
<glyph unicode="&#x2000;" horiz-adv-x="6" />
<glyph unicode="&#x2001;" horiz-adv-x="13" />
<glyph unicode="&#x2002;" horiz-adv-x="6" />
<glyph unicode="&#x2003;" horiz-adv-x="13" />
<glyph unicode="&#x2004;" horiz-adv-x="4" />
<glyph unicode="&#x2005;" horiz-adv-x="3" />
<glyph unicode="&#x2006;" horiz-adv-x="2" />
<glyph unicode="&#x2007;" horiz-adv-x="2" />
<glyph unicode="&#x2008;" horiz-adv-x="1" />
<glyph unicode="&#x2009;" horiz-adv-x="2" />
<glyph unicode="&#x200a;" horiz-adv-x="0" />
<glyph unicode="&#x2010;" horiz-adv-x="4" d="M1 3v1h3v-1h-3z" />
<glyph unicode="&#x2011;" horiz-adv-x="4" d="M1 3v1h3v-1h-3z" />
<glyph unicode="&#x2012;" horiz-adv-x="4" d="M1 3v1h3v-1h-3z" />
<glyph unicode="&#x2013;" horiz-adv-x="7" d="M1 3v1h5v-1h-5z" />
<glyph unicode="&#x2014;" horiz-adv-x="14" d="M1 3v1h12v-1h-12z" />
<glyph unicode="&#x2018;" horiz-adv-x="2" d="M0 7l0.5 1t0.5 2h1v-3h-2z" />
<glyph unicode="&#x2019;" horiz-adv-x="2" d="M0 7q1 2 1 3h1q0 -1 -0.5 -2l-0.5 -1h-1z" />
<glyph unicode="&#x201a;" horiz-adv-x="3" d="M0 -2q1 1 1 2v2h1v-1v-1t-1 -2h-1z" />
<glyph unicode="&#x201c;" horiz-adv-x="4" d="M0 7l0.5 1t0.5 2h1v-3h-2zM3 7q0 1 1 3h1q0 -1 -0.5 -2l-0.5 -1h-1z" />
<glyph unicode="&#x201d;" horiz-adv-x="4" d="M0 7q1 2 1 3h1q0 -1 -0.5 -2l-0.5 -1h-1zM3 7v1v2h2q0 -1 -0.5 -2l-0.5 -1h-1z" />
<glyph unicode="&#x201e;" horiz-adv-x="5" d="M0 -1q1 2 1 3h1q0 -1 -0.5 -2l-0.5 -1h-1zM3 0v2h2q0 -1 -0.5 -2l-0.5 -1h-1v1z" />
<glyph unicode="&#x2022;" horiz-adv-x="5" d="M1 5q0 1 0.5 1.5t1 0.5t1 -0.5t0.5 -1.5t-0.5 -1.5t-1 -0.5t-1 0.5t-0.5 1.5z" />
<glyph unicode="&#x2026;" horiz-adv-x="10" d="M1 0v0.5v1t0.5 0.5t1 -0.5t0.5 -1t-0.5 -0.5h-1h-0.5zM5 0v0.5v1t0.5 0.5t1 -0.5t0.5 -1t-0.5 -0.5h-1h-0.5zM8 0v0.5v1t0.5 0.5t1 -0.5t0.5 -1t-0.5 -0.5h-1h-0.5z" />
<glyph unicode="&#x202f;" horiz-adv-x="2" />
<glyph unicode="&#x2039;" horiz-adv-x="4" d="M1 4l2 3l1 -1l-2 -2l2 -3h-1z" />
<glyph unicode="&#x203a;" horiz-adv-x="4" d="M1 1l2 3l-2 2v1l3 -3z" />
<glyph unicode="&#x205f;" horiz-adv-x="3" />
<glyph unicode="&#x20ac;" d="M0 3v1h1v1h-1v1h2q0 2 1 3t2 1q2 0 3 -1h-1h-2q-2 0 -2 -3h3v-1h-3v-1h3v-1h-3q0 -1 0.5 -1.5t2 -0.5h2.5v-1h-3q-1 0 -2 1t-1 2h-2z" />
<glyph unicode="&#x2122;" horiz-adv-x="10" d="M0 9v1h4v-1h-1v-4h-1v4h-2zM4 5v5h2l1 -4l1 4h2v-5h-1v3v1l-2 -4l-2 4v-1v-3h-1z" />
<glyph unicode="&#x25fc;" horiz-adv-x="7" d="M0 0v7h7v-7h-7z" />
</font>
</defs>
</svg>
